<?xml version="1.0" standalone="no"?><!DOCTYPE svg PUBLIC "-//W3C//DTD SVG 1.1//EN" "http://www.w3.org/Graphics/SVG/1.1/DTD/svg11.dtd"><svg class="icon" width="32px" height="32.00px" viewBox="0 0 1024 1024" version="1.1" xmlns="http://www.w3.org/2000/svg"><path d="M167.253333 733.866667h677.546667l88.746667 109.226666c30.72 39.253333 17.066667 69.973333-34.133334 69.973334H105.813333c-49.493333 0-63.146667-30.72-32.426666-68.266667L167.253333 733.866667z m267.946667-575.146667c44.373333 0 58.026667 29.013333 58.026667 49.493333V443.733333c0 20.48-25.6 42.666667-47.786667 42.666667h-245.76c-22.186667 0-39.253333-22.186667-39.253333-42.666667V196.266667c0-20.48 17.066667-37.546667 39.253333-37.546667h235.52z" fill="#3087FE" /><path d="M803.84 523.946667c46.08 0 59.733333 30.72 59.733333 49.493333v235.52c0 18.773333-15.36 35.84-35.84 35.84h-235.52c-18.773333 0-35.84-15.36-35.84-35.84v-235.52c0-18.773333 15.36-35.84 35.84-35.84l211.626667-13.653333z m-365.226667 0c51.2 5.12 61.44 30.72 61.44 49.493333v235.52c0 18.773333-15.36 35.84-35.84 35.84H228.693333c-18.773333 0-35.84-15.36-35.84-35.84v-235.52c0-18.773333 15.36-35.84 35.84-35.84l209.92-13.653333z" fill="#2F86FE" /><path d="M431.786667 158.72c18.773333 0 35.84 15.36 35.84 35.84v235.52c0 18.773333-15.36 35.84-35.84 35.84H194.56c-18.773333 0-35.84-15.36-35.84-35.84V194.56c0-18.773333 15.36-35.84 35.84-35.84h237.226667z m361.813333 361.813333c18.773333 0 35.84 15.36 35.84 35.84v235.52c0 18.773333-15.36 35.84-35.84 35.84h-235.52c-18.773333 0-35.84-15.36-35.84-35.84v-235.52c0-18.773333 15.36-35.84 35.84-35.84h235.52z m-361.813333 0c18.773333 0 35.84 15.36 35.84 35.84v235.52c0 18.773333-15.36 35.84-35.84 35.84H194.56c-18.773333 0-35.84-15.36-35.84-35.84v-235.52c0-18.773333 15.36-35.84 35.84-35.84h237.226667z" fill="#ECF4FF" /><path d="M899.413333 223.573333l-194.56-102.4c-17.066667-10.24-71.68-3.413333-80.213333 15.36l-90.453333 223.573334c-8.533333 17.066667-3.413333 39.253333 15.36 49.493333l184.32 105.813333c42.666667 17.066667 68.266667-1.706667 76.8-18.773333l105.813333-201.386667c10.24-18.773333 10.24-58.026667-17.066667-71.68z" fill="#00DE9C" opacity=".3" /><path d="M868.693333 233.813333L658.773333 122.88c-17.066667-8.533333-39.253333-1.706667-47.786666 15.36l-110.933334 209.92c-8.533333 17.066667-1.706667 39.253333 15.36 47.786667l209.92 110.933333c17.066667 8.533333 39.253333 1.706667 47.786667-15.36l110.933333-209.92c8.533333-17.066667 1.706667-37.546667-15.36-47.786667z" fill="#00DE9C" /></svg>