<?xml version="1.0" standalone="no"?><!DOCTYPE svg PUBLIC "-//W3C//DTD SVG 1.1//EN" "http://www.w3.org/Graphics/SVG/1.1/DTD/svg11.dtd"><svg class="icon" width="32px" height="32.00px" viewBox="0 0 1024 1024" version="1.1" xmlns="http://www.w3.org/2000/svg"><path d="M584.78401 151.559l-54.674 54.016c-24.138 23.934-37.718 56.326-37.78 90.112v421.786c0 54.016 0 80.998 16.221 87.45 16.273 6.45 35.189-13.057 73.02-52.02l302.55-311.808c79.22-81.93 77.025-211.563-4.924-290.829-81.949-79.266-213.18-78.69-294.413 1.293z m-170.19 53.299v614.4C414.56001 932.344 321.76001 1024 207.29701 1024S0.03201 932.344 0.00001 819.258v-614.4C-0.03199 91.728 92.78701 0 207.29701 0c114.51 0 207.33 91.727 207.297 204.858z m-207.297 665.6c28.622 0 51.824-22.923 51.824-51.2 0-28.277-23.202-51.2-51.824-51.2-28.622 0-51.824 22.923-51.824 51.2 0 28.277 23.202 51.2 51.824 51.2z" fill="#5d6dfd" /><path d="M816.63801 1021.123c114.513 0.035 207.362-91.668 207.362-204.8 0-113.133-92.85-204.8-207.362-204.8h-11.401L504.55301 908.38c-12.492 11.804-19.567 28.132-19.59 45.21 0 36.505 29.903 67.533 66.854 67.533z" fill="#FF6366" /></svg>