<?xml version="1.0" standalone="no"?><!DOCTYPE svg PUBLIC "-//W3C//DTD SVG 1.1//EN" "http://www.w3.org/Graphics/SVG/1.1/DTD/svg11.dtd"><svg t="1745809413869" class="icon" viewBox="0 0 1024 1024" version="1.1" xmlns="http://www.w3.org/2000/svg" p-id="34541" width="128" height="128" xmlns:xlink="http://www.w3.org/1999/xlink"><path d="M128 192a128 128 0 0 1 128-128h421.504a64 64 0 0 1 45.248 18.752l154.496 154.496a64 64 0 0 1 18.752 45.248V832a128 128 0 0 1-128 128H256a128 128 0 0 1-128-128V192z" fill="#6B68FB" p-id="34542" data-spm-anchor-id="a313x.search_index.0.i43.781b3a81BTWAkb" class=""></path><path d="M704 69.76a64 64 0 0 1 18.752 12.992l154.496 154.496c5.504 5.504 9.856 11.84 12.992 18.752H768a64 64 0 0 1-64-64V69.76z" fill="#9e9cfd" p-id="34543" data-spm-anchor-id="a313x.search_index.0.i39.781b3a81BTWAkb" class=""></path><path d="M548.864 420.864a38.4 38.4 0 0 1 54.336 0l103.808 103.872c28.352 28.288 28.352 74.24 0 102.528l-103.808 103.872a38.4 38.4 0 0 1-54.336-54.272L649.728 576 548.864 475.136a38.4 38.4 0 0 1 0-54.272zM475.136 420.864a38.4 38.4 0 0 1 0 54.272L374.4 576l100.8 100.864a38.4 38.4 0 1 1-54.272 54.272L316.992 627.264a72.512 72.512 0 0 1 0-102.528l103.872-103.872a38.4 38.4 0 0 1 54.272 0z" fill="#FFFFFF" p-id="34544" data-spm-anchor-id="a313x.search_index.0.i42.781b3a81BTWAkb" class=""></path></svg>