<?xml version="1.0" standalone="no"?><!DOCTYPE svg PUBLIC "-//W3C//DTD SVG 1.1//EN" "http://www.w3.org/Graphics/SVG/1.1/DTD/svg11.dtd"><svg t="1745809413869" class="icon" viewBox="0 0 1024 1024" version="1.1" xmlns="http://www.w3.org/2000/svg" p-id="34541" width="128" height="128" xmlns:xlink="http://www.w3.org/1999/xlink"><path d="M128 192a128 128 0 0 1 128-128h421.504a64 64 0 0 1 45.248 18.752l154.496 154.496a64 64 0 0 1 18.752 45.248V832a128 128 0 0 1-128 128H256a128 128 0 0 1-128-128V192z" fill="#10B981" p-id="34542"></path><path d="M704 69.76a64 64 0 0 1 18.752 12.992l154.496 154.496c5.504 5.504 9.856 11.84 12.992 18.752H768a64 64 0 0 1-64-64V69.76z" fill="#34D399" p-id="34543"></path><path d="M320 384h384a32 32 0 0 1 0 64H320a32 32 0 0 1 0-64zM320 512h384a32 32 0 0 1 0 64H320a32 32 0 0 1 0-64zM320 640h256a32 32 0 0 1 0 64H320a32 32 0 0 1 0-64z" fill="#FFFFFF" p-id="34544"></path></svg>
