<svg width="32" height="32" viewBox="0 0 32 32" fill="none" xmlns="http://www.w3.org/2000/svg">
  <path d="M8 6.5C8 5.67 8.67 5 9.5 5H19.2L25 10.8V25.5C25 26.33 24.33 27 23.5 27H9.5C8.67 27 8 26.33 8 25.5V6.5Z" fill="#CCFBF1"/>
  <path d="M19 5V11H25" stroke="#14B8A6" stroke-width="2.1" stroke-linejoin="round"/>
  <path d="M8 6.5C8 5.67 8.67 5 9.5 5H19.2L25 10.8V25.5C25 26.33 24.33 27 23.5 27H9.5C8.67 27 8 26.33 8 25.5V6.5Z" stroke="#14B8A6" stroke-width="2.2" stroke-linejoin="round"/>
  <path d="M12 16H20" stroke="#0F766E" stroke-width="2" stroke-linecap="round"/>
  <path d="M12 20.5H18" stroke="#0F766E" stroke-width="2" stroke-linecap="round" opacity=".72"/>
</svg>
