<?xml version="1.0" standalone="no"?><!DOCTYPE svg PUBLIC "-//W3C//DTD SVG 1.1//EN" "http://www.w3.org/Graphics/SVG/1.1/DTD/svg11.dtd"><svg t="1742954457791" class="icon" viewBox="0 0 1024 1024" version="1.1" xmlns="http://www.w3.org/2000/svg" p-id="165326" xmlns:xlink="http://www.w3.org/1999/xlink" width="32" height="32"><path d="M140.261053 169.768421m16.168421 0l700.874105 0q16.168421 0 16.168421 16.168421l0 135.922526q0 16.168421-16.168421 16.168421l-700.874105 0q-16.168421 0-16.168421-16.168421l0-135.922526q0-16.168421 16.168421-16.168421Z" fill="#2071FF" p-id="165327"></path><path d="M178.256842 222.477474m31.420632 0l333.419789 0q31.420632 0 31.420632 31.420631l0-0.026947q0 31.420632-31.420632 31.420631l-333.419789 0q-31.420632 0-31.420632-31.420631l0 0.026947q0-31.420632 31.420632-31.420631Z" fill="#FFFFFF" p-id="165328"></path><path d="M140.261053 411.621053m16.168421 0l445.763368 0q16.168421 0 16.168421 16.168421l0 86.285473q0 16.168421-16.168421 16.168421l-445.763368 0q-16.168421 0-16.168421-16.168421l0-86.285473q0-16.168421 16.168421-16.168421Z" fill="#D9D9D9" p-id="165329"></path><path d="M645.820632 411.621053m16.168421 0l205.419789 0q16.168421 0 16.168421 16.168421l0 86.285473q0 16.168421-16.168421 16.168421l-205.419789 0q-16.168421 0-16.168421-16.168421l0-86.285473q0-16.168421 16.168421-16.168421Z" fill="#D9D9D9" p-id="165330"></path><path d="M140.261053 573.628632m16.168421 0l592.114526 0q16.168421 0 16.168421 16.168421l0 86.285473q0 16.168421-16.168421 16.168421l-592.114526 0q-16.168421 0-16.168421-16.168421l0-86.285473q0-16.168421 16.168421-16.168421Z" fill="#D9D9D9" p-id="165331"></path><path d="M140.261053 735.609263m16.168421 0l289.522526 0q16.168421 0 16.168421 16.168421l0 86.285474q0 16.168421-16.168421 16.168421l-289.522526 0q-16.168421 0-16.168421-16.168421l0-86.285474q0-16.168421 16.168421-16.168421Z" fill="#D9D9D9" p-id="165332"></path><path d="M484.890947 735.609263m16.168421 0l289.522527 0q16.168421 0 16.168421 16.168421l0 86.285474q0 16.168421-16.168421 16.168421l-289.522527 0q-16.168421 0-16.168421-16.168421l0-86.285474q0-16.168421 16.168421-16.168421Z" fill="#D9D9D9" p-id="165333"></path><path d="M824.778105 293.591579l-25.49221-25.438316a40.636632 40.636632 0 1 0-8.784842 8.784842l25.438315 25.519158a6.251789 6.251789 0 1 0 8.838737-8.865684z m-58.152421-21.261474a28.052211 28.052211 0 1 1 0-56.104421 28.052211 28.052211 0 0 1 0 56.104421z" fill="#FFFFFF" p-id="165334"></path></svg>