<svg width="32" height="32" viewBox="0 0 32 32" fill="none" xmlns="http://www.w3.org/2000/svg">
  <path d="M14.2 21.4C18.18 21.4 21.4 18.18 21.4 14.2C21.4 10.22 18.18 7 14.2 7C10.22 7 7 10.22 7 14.2C7 18.18 10.22 21.4 14.2 21.4Z" fill="#FFEDD5"/>
  <path d="M14.2 21.4C18.18 21.4 21.4 18.18 21.4 14.2C21.4 10.22 18.18 7 14.2 7C10.22 7 7 10.22 7 14.2C7 18.18 10.22 21.4 14.2 21.4Z" stroke="#F97316" stroke-width="2.2"/>
  <path d="M19.6 19.6L26 26" stroke="#EA580C" stroke-width="2.6" stroke-linecap="round"/>
  <path d="M11.3 14.1H17.3" stroke="#FB923C" stroke-width="1.9" stroke-linecap="round" opacity=".82"/>
</svg>
